<?xml version="1.0" encoding="UTF-8" standalone="no"?>
<!-- The icon can be used freely in both personal and commercial projects with no attribution required, but always appreciated.
You may NOT sub-license, resell, rent, redistribute or otherwise transfer the icon without express written permission from iconmonstr.com -->

<svg
   xmlns:dc="http://purl.org/dc/elements/1.1/"
   xmlns:cc="http://creativecommons.org/ns#"
   xmlns:rdf="http://www.w3.org/1999/02/22-rdf-syntax-ns#"
   xmlns:svg="http://www.w3.org/2000/svg"
   xmlns="http://www.w3.org/2000/svg"
   xmlns:xlink="http://www.w3.org/1999/xlink"
   xmlns:sodipodi="http://sodipodi.sourceforge.net/DTD/sodipodi-0.dtd"
   xmlns:inkscape="http://www.inkscape.org/namespaces/inkscape"
   version="1.1"
   x="0px"
   y="0px"
   width="512px"
   height="512px"
   viewBox="0 0 512 512"
   enable-background="new 0 0 512 512"
   xml:space="preserve"
   fill="#3c3c3c"
   id="svg2"
   inkscape:version="0.48.4 r9939"
   sodipodi:docname="password.svg"><metadata
     id="metadata9"><rdf:RDF><cc:Work
         rdf:about=""><dc:format>image/svg+xml</dc:format><dc:type
           rdf:resource="http://purl.org/dc/dcmitype/StillImage" /></cc:Work></rdf:RDF></metadata><defs
     id="defs7"><filter
       color-interpolation-filters="sRGB"
       inkscape:collect="always"
       x="-0.085115738"
       width="1.1702315"
       y="-0.4135721"
       height="1.8271441"
       id="filter6328"><feGaussianBlur
         inkscape:collect="always"
         stdDeviation="0.42546784"
         id="feGaussianBlur6330" /></filter><linearGradient
       inkscape:collect="always"
       id="linearGradient6057"><stop
         style="stop-color:#ffffff;stop-opacity:1;"
         offset="0"
         id="stop6059" /><stop
         style="stop-color:#ffffff;stop-opacity:0;"
         offset="1"
         id="stop6061" /></linearGradient><linearGradient
       id="linearGradient12071"
       inkscape:collect="always"><stop
         id="stop12073"
         offset="0"
         style="stop-color:#ffffff;stop-opacity:1;" /><stop
         id="stop12075"
         offset="1"
         style="stop-color:#ffffff;stop-opacity:0;" /></linearGradient><filter
       color-interpolation-filters="sRGB"
       inkscape:collect="always"
       id="filter5745"><feGaussianBlur
         inkscape:collect="always"
         stdDeviation="0.8362597"
         id="feGaussianBlur5747" /></filter><linearGradient
       id="linearGradient10591"><stop
         id="stop10593"
         offset="0.0000000"
         style="stop-color:#cad0c6;stop-opacity:1.0000000;" /><stop
         style="stop-color:#eaece9;stop-opacity:1.0000000;"
         offset="0.50000000"
         id="stop10599" /><stop
         id="stop10595"
         offset="1.0000000"
         style="stop-color:#c5cbc0;stop-opacity:1.0000000;" /></linearGradient><linearGradient
       inkscape:collect="always"
       id="linearGradient6227"><stop
         style="stop-color:#000000;stop-opacity:1;"
         offset="0"
         id="stop6229" /><stop
         style="stop-color:#000000;stop-opacity:0;"
         offset="1"
         id="stop6231" /></linearGradient><filter
       color-interpolation-filters="sRGB"
       inkscape:collect="always"
       x="-0.24242526"
       width="1.4848505"
       y="-0.047579072"
       height="1.0951581"
       id="filter6251"><feGaussianBlur
         inkscape:collect="always"
         stdDeviation="0.24444548"
         id="feGaussianBlur6253" /></filter><linearGradient
       id="linearGradient6089"><stop
         style="stop-color:#000000;stop-opacity:1;"
         offset="0"
         id="stop6091" /><stop
         id="stop6097"
         offset="0.5"
         style="stop-color:#000000;stop-opacity:0.17171717;" /><stop
         style="stop-color:#000000;stop-opacity:1;"
         offset="1"
         id="stop6093" /></linearGradient><filter
       color-interpolation-filters="sRGB"
       inkscape:collect="always"
       x="-0.14143889"
       width="1.2828778"
       y="-1.5218824"
       height="4.0437646"
       id="filter6171"><feGaussianBlur
         inkscape:collect="always"
         stdDeviation="1.1889706"
         id="feGaussianBlur6173" /></filter><linearGradient
       inkscape:collect="always"
       id="linearGradient6075"><stop
         style="stop-color:#000000;stop-opacity:1;"
         offset="0"
         id="stop6077" /><stop
         style="stop-color:#000000;stop-opacity:0;"
         offset="1"
         id="stop6079" /></linearGradient><linearGradient
       id="linearGradient5881"><stop
         id="stop5883"
         offset="0"
         style="stop-color:#fffac7;stop-opacity:1;" /><stop
         style="stop-color:#fff8b2;stop-opacity:1;"
         offset="1"
         id="stop5885" /></linearGradient><linearGradient
       id="linearGradient9845"><stop
         id="stop9847"
         offset="0"
         style="stop-color:#ffffff;stop-opacity:1;" /><stop
         id="stop9849"
         offset="1.0000000"
         style="stop-color:#ffffff;stop-opacity:0.49484536;" /></linearGradient><linearGradient
       id="linearGradient6215"><stop
         id="stop6217"
         offset="0"
         style="stop-color:#ead200;stop-opacity:1;" /><stop
         style="stop-color:#fff16a;stop-opacity:1;"
         offset="0.10060732"
         id="stop6219" /><stop
         id="stop6221"
         offset="0.88798767"
         style="stop-color:#b5a300;stop-opacity:1;" /><stop
         id="stop6223"
         offset="1"
         style="stop-color:#e8d000;stop-opacity:1;" /></linearGradient><filter
       color-interpolation-filters="sRGB"
       inkscape:collect="always"
       x="-0.074990258"
       width="1.1499805"
       y="-0.47181374"
       height="1.9436275"
       id="filter6051"><feGaussianBlur
         inkscape:collect="always"
         stdDeviation="1.4154412"
         id="feGaussianBlur6053" /></filter><linearGradient
       inkscape:collect="always"
       xlink:href="#linearGradient6215"
       id="linearGradient3485"
       gradientUnits="userSpaceOnUse"
       gradientTransform="matrix(8.2262183,0,0,10.633265,58.524767,-24.325254)"
       x1="6.72682"
       y1="32.161697"
       x2="42.012188"
       y2="32.161697" /><linearGradient
       inkscape:collect="always"
       xlink:href="#linearGradient9845"
       id="linearGradient3487"
       gradientUnits="userSpaceOnUse"
       gradientTransform="matrix(8.2043597,0,0,10.518055,59.174307,-6.969923)"
       x1="10.907269"
       y1="25.002281"
       x2="30.875446"
       y2="36.127281" /><linearGradient
       inkscape:collect="always"
       xlink:href="#linearGradient5881"
       id="linearGradient3489"
       gradientUnits="userSpaceOnUse"
       gradientTransform="matrix(8.2191676,0,0,14.116758,58.694683,-39.014867)"
       x1="24.875"
       y1="21"
       x2="24.75"
       y2="17" /><linearGradient
       inkscape:collect="always"
       xlink:href="#linearGradient12071"
       id="linearGradient3491"
       gradientUnits="userSpaceOnUse"
       gradientTransform="matrix(8.211645,0,0,8.9587112,58.87523,69.531985)"
       x1="21.941509"
       y1="21.550869"
       x2="21.941509"
       y2="18.037588" /><radialGradient
       inkscape:collect="always"
       xlink:href="#linearGradient6075"
       id="radialGradient3493"
       gradientUnits="userSpaceOnUse"
       gradientTransform="matrix(1,0,0,0.5849057,0,8.4316038)"
       cx="15.9375"
       cy="20.3125"
       fx="15.9375"
       fy="20.3125"
       r="3.3125" /><radialGradient
       inkscape:collect="always"
       xlink:href="#linearGradient6075"
       id="radialGradient3495"
       gradientUnits="userSpaceOnUse"
       gradientTransform="matrix(1,0,0,0.5849057,0,8.4316038)"
       cx="15.9375"
       cy="20.3125"
       fx="15.9375"
       fy="20.3125"
       r="3.3125" /><linearGradient
       inkscape:collect="always"
       xlink:href="#linearGradient6089"
       id="linearGradient3497"
       gradientUnits="userSpaceOnUse"
       gradientTransform="translate(802.375,118.16645)"
       x1="17.1875"
       y1="20.09375"
       x2="34"
       y2="20.09375" /><linearGradient
       inkscape:collect="always"
       xlink:href="#linearGradient10591"
       id="linearGradient3499"
       gradientUnits="userSpaceOnUse"
       gradientTransform="translate(0,-1.926279)"
       x1="10.650842"
       y1="2.9136841"
       x2="27.192274"
       y2="17.470011" /><linearGradient
       inkscape:collect="always"
       xlink:href="#linearGradient6227"
       id="linearGradient3501"
       gradientUnits="userSpaceOnUse"
       gradientTransform="translate(1.6824037,1.125)"
       x1="35.004684"
       y1="14.849737"
       x2="33.004314"
       y2="14.849737" /><linearGradient
       inkscape:collect="always"
       xlink:href="#linearGradient6227"
       id="linearGradient3503"
       gradientUnits="userSpaceOnUse"
       gradientTransform="translate(-19.532826,1.7437184)"
       x1="32.128025"
       y1="13.789077"
       x2="35.020981"
       y2="13.789077" /><radialGradient
       inkscape:collect="always"
       xlink:href="#linearGradient6057"
       id="radialGradient3505"
       gradientUnits="userSpaceOnUse"
       cx="18.031223"
       cy="6.2806997"
       fx="18.031223"
       fy="6.2806997"
       r="3.1819806" /></defs><sodipodi:namedview
     pagecolor="#ffffff"
     bordercolor="#666666"
     borderopacity="1"
     objecttolerance="10"
     gridtolerance="10"
     guidetolerance="10"
     inkscape:pageopacity="0"
     inkscape:pageshadow="2"
     inkscape:window-width="1366"
     inkscape:window-height="702"
     id="namedview5"
     showgrid="false"
     inkscape:zoom="0.5"
     inkscape:cx="546.79228"
     inkscape:cy="227.53494"
     inkscape:window-x="0"
     inkscape:window-y="27"
     inkscape:window-maximized="1"
     inkscape:current-layer="svg2" /><rect
     style="opacity:0.45882353;color:#000000;fill:#000000;fill-opacity:1;fill-rule:evenodd;stroke:none;stroke-width:1;marker:none;visibility:visible;display:inline;overflow:visible;filter:url(#filter6051);enable-background:accumulate"
     id="rect5961"
     width="37.75"
     height="6"
     x="6.25"
     y="39.75"
     rx="3.1708715"
     ry="1.9748279"
     transform="matrix(8.6917378,0,0,9.4111722,38.620091,31.568929)" /><path
     inkscape:connector-curvature="0"
     style="fill:url(#linearGradient3485);fill-opacity:1;fill-rule:evenodd;stroke:#c4a000;stroke-width:8.92683697;stroke-linecap:round;stroke-linejoin:round;stroke-miterlimit:4;stroke-opacity:1;stroke-dashoffset:0"
     d="m 130.3805,196.26444 c 0,0 251.09568,0 251.09568,0 10.18542,0 18.38542,9.82121 18.38542,22.02073 l -1.05846,199.47271 c 0,31.60864 -14.9442,42.01939 -45.90455,42.01939 0,0 -204.52479,0 -204.52479,0 -19.2182,0 -30.14771,-7.93843 -36.37865,-33.78461 l 0,-207.70749 c 0,-12.19952 8.19987,-22.02073 18.38535,-22.02073 z"
     id="rect1314"
     sodipodi:nodetypes="ccccccccc" /><path
     inkscape:connector-curvature="0"
     style="fill:none;stroke:url(#linearGradient3487);stroke-width:8.92684269;stroke-linecap:round;stroke-linejoin:round;stroke-miterlimit:4;stroke-opacity:0.60109289;stroke-dashoffset:0"
     d="m 131.04341,210.33753 249.83033,0 c 5.86169,0 10.58084,5.51608 10.58084,12.36778 l 0,199.99984 c 0,18.76381 -12.54034,27.66094 -31.74946,27.66094 0,0 -215.96056,0 -215.96056,0 -14.3683,0 -23.28197,-10.22158 -23.28197,-27.66094 l 0,-199.99984 c 0,-6.8517 4.71899,-12.36778 10.58082,-12.36778 z"
     id="rect6903"
     sodipodi:nodetypes="ccccccccc" /><path
     inkscape:connector-curvature="0"
     style="color:#000000;fill:url(#linearGradient3489);fill-opacity:1;fill-rule:evenodd;stroke:none;stroke-width:2;marker:none;visibility:visible;display:inline;overflow:visible"
     d="m 129.84214,200.97002 c 0,0 252.22513,0 252.22513,0 7.54176,0 13.61326,6.74828 13.61326,15.13063 l 0,26.20588 c 0,8.38235 -6.0715,15.13053 -13.61326,15.13053 0,0 -252.22513,0 -252.22513,0 -7.54177,0 -13.61327,-6.74818 -13.61327,-15.13053 l 0,-26.20588 c 0,-8.38235 6.0715,-15.13063 13.61327,-15.13063 z"
     id="rect1460"
     sodipodi:nodetypes="ccccccccc" /><path
     sodipodi:type="arc"
     style="opacity:0.36470588;color:#000000;fill:url(#radialGradient3493);fill-opacity:1;fill-rule:evenodd;stroke:none;stroke-width:1;marker:none;visibility:visible;display:inline;overflow:visible;enable-background:accumulate"
     id="path6073"
     sodipodi:cx="15.9375"
     sodipodi:cy="20.3125"
     sodipodi:rx="3.3125"
     sodipodi:ry="1.9375"
     d="m 19.25,20.3125 a 3.3125,1.9375 0 1 1 -6.625,0 3.3125,1.9375 0 1 1 6.625,0 z"
     transform="matrix(11.745152,0,0,13.054207,-16.45041,-42.430181)" /><path
     transform="matrix(11.745152,0,0,13.054207,155.01514,-42.430181)"
     d="m 19.25,20.3125 a 3.3125,1.9375 0 1 1 -6.625,0 3.3125,1.9375 0 1 1 6.625,0 z"
     sodipodi:ry="1.9375"
     sodipodi:rx="3.3125"
     sodipodi:cy="20.3125"
     sodipodi:cx="15.9375"
     id="path6083"
     style="opacity:0.34705882;color:#000000;fill:url(#radialGradient3495);fill-opacity:1;fill-rule:evenodd;stroke:none;stroke-width:1;marker:none;visibility:visible;display:inline;overflow:visible;enable-background:accumulate"
     sodipodi:type="arc" /><rect
     style="opacity:0.48235294;color:#000000;fill:url(#linearGradient3497);fill-opacity:1;fill-rule:evenodd;stroke:none;stroke-width:1;marker:none;visibility:visible;display:inline;overflow:visible;filter:url(#filter6171);enable-background:accumulate"
     id="rect6087"
     width="16.8125"
     height="1.5625"
     x="819.5625"
     y="137.47896"
     rx="0.78125"
     ry="0.78125"
     transform="matrix(8.4674346,0,0,9.4111722,-6754.0358,-1085.2215)" /><g
     id="g1387"
     inkscape:r_cx="true"
     inkscape:r_cy="true"
     transform="matrix(7.549408,0,0,9.4111722,74.252923,26.938253)"><path
       inkscape:connector-curvature="0"
       inkscape:r_cy="true"
       inkscape:r_cx="true"
       sodipodi:nodetypes="cczcccczccc"
       id="path2086"
       d="m 9.4484974,20.172346 0,-5.734846 C 9.4484974,6.5673666 17.14309,2.8895822 24.020027,2.9892921 30.798728,3.0875777 38.691703,6.5372782 38.691703,14.5 l 0,5.984846 c 0,1.954229 -6.68034,2.114563 -6.68034,-0.08839 l 0,-3.984846 c 0,-2 -1.21807,-7.3228048 -7.934122,-7.3228048 -6.914326,0 -8.016487,5.3001898 -7.983796,7.2523308 l 0,3.776498 c 0,2.35462 -6.6449476,2.432997 -6.6449476,0.05471 z"
       style="fill:url(#linearGradient3499);fill-opacity:1;fill-rule:evenodd;stroke:#888a85;stroke-width:1.05905688;stroke-linecap:butt;stroke-linejoin:miter;stroke-miterlimit:4;stroke-opacity:1;stroke-dasharray:none" /><path
       inkscape:connector-curvature="0"
       style="opacity:0.18235294;fill:url(#linearGradient3501);fill-opacity:1;fill-rule:evenodd;stroke:none;filter:url(#filter6251)"
       d="m 34.687087,10.837069 1.263948,0.125 c 0.927239,2.822733 0.736052,9.510413 0.736052,9.510413 -0.0625,1.125 -2.03125,0.53125 -2,0 l 0,-9.635413 z"
       id="rect1345"
       sodipodi:nodetypes="ccccc"
       inkscape:r_cx="true"
       inkscape:r_cy="true" /><path
       inkscape:connector-curvature="0"
       inkscape:r_cy="true"
       inkscape:r_cx="true"
       sodipodi:nodetypes="ccccc"
       id="path6332"
       d="m 12.926606,11.544175 0.371719,0.169195 c 1.720331,1.054966 2.173532,9.37783 2.173532,9.37783 -0.0625,1.125 -2.03125,0.53125 -2,0 0,0 0.37822,-6.87064 -0.545251,-9.547025 z"
       style="opacity:0.14117647;fill:url(#linearGradient3503);fill-opacity:1;fill-rule:evenodd;stroke:none;filter:url(#filter6251)"
       transform="matrix(-1,0,0,1,29.702795,-1.052132)" /></g><path
     inkscape:connector-curvature="0"
     style="opacity:0.62352941;color:#000000;fill:none;stroke:#ffffff;stroke-width:2;stroke-linecap:round;stroke-linejoin:miter;stroke-miterlimit:4;stroke-opacity:1;stroke-dasharray:none;stroke-dashoffset:0;marker:none;visibility:visible;display:inline;overflow:visible;filter:url(#filter5745);enable-background:accumulate"
     d="m 817.75,138.29145 0.125,-7.5 c 0,-9.87637 18.6875,-10.6764 18.6875,0.875 l 0,6.875"
     id="path5675"
     sodipodi:nodetypes="cccc"
     transform="matrix(8.4674346,0,0,9.4111722,-6754.0358,-1085.2215)" /><path
     inkscape:connector-curvature="0"
     style="color:#000000;fill:none;stroke:url(#linearGradient3491);stroke-width:8.92684078;stroke-linecap:round;stroke-linejoin:round;stroke-miterlimit:4;stroke-opacity:1;stroke-dashoffset:0;marker:none;visibility:visible;display:inline;overflow:visible"
     d="m 130.31818,226.30941 145.73351,0 105.53962,0 c 5.45996,0 9.85556,4.60396 9.85556,10.32265 l 0,6.23085 c 0,5.7188 -4.3956,10.32265 -9.85556,10.32265 0,0 -251.27313,0 -251.27313,0 -5.46006,0 -9.85559,-4.60385 -9.85559,-10.32265 l 0,-6.23085 c 0,-5.71869 4.39553,-10.32265 9.85559,-10.32265 z"
     id="rect1593"
     sodipodi:nodetypes="cccccccccc" /><g
     id="g6067"
     transform="matrix(8.4674346,0,0,9.4111722,46.684054,36.625733)"><path
       d="m 21.213204,6.2806997 c 0,1.7573594 -1.424621,3.1819806 -3.181981,3.1819806 -1.757359,0 -3.18198,-1.4246212 -3.18198,-3.1819806 0,-1.7573593 1.424621,-3.1819806 3.18198,-3.1819806 1.75736,0 3.181981,1.4246213 3.181981,3.1819806 z"
       sodipodi:ry="3.1819806"
       sodipodi:rx="3.1819806"
       sodipodi:cy="6.2806997"
       sodipodi:cx="18.031223"
       id="path6055"
       style="color:#000000;fill:url(#radialGradient3505);fill-opacity:1;fill-rule:evenodd;stroke:none;stroke-width:1;marker:none;visibility:visible;display:inline;overflow:visible;enable-background:accumulate"
       sodipodi:type="arc" /><path
       transform="matrix(0.4343344,0,0,0.4343344,10.199642,3.5527756)"
       sodipodi:type="arc"
       style="color:#000000;fill:#ffffff;fill-opacity:1;fill-rule:evenodd;stroke:none;stroke-width:1;marker:none;visibility:visible;display:inline;overflow:visible;enable-background:accumulate"
       id="path6065"
       sodipodi:cx="18.031223"
       sodipodi:cy="6.2806997"
       sodipodi:rx="3.1819806"
       sodipodi:ry="3.1819806"
       d="m 21.213204,6.2806997 c 0,1.7573594 -1.424621,3.1819806 -3.181981,3.1819806 -1.757359,0 -3.18198,-1.4246212 -3.18198,-3.1819806 0,-1.7573593 1.424621,-3.1819806 3.18198,-3.1819806 1.75736,0 3.181981,1.4246213 3.181981,3.1819806 z" /></g><path
     inkscape:connector-curvature="0"
     style="color:#000000;fill:#ffffff;fill-opacity:1;fill-rule:evenodd;stroke:none;stroke-width:1;marker:none;visibility:visible;display:inline;overflow:visible;filter:url(#filter6328);enable-background:accumulate"
     d="m 824.09069,122.62267 c 2.45274,-0.59029 5.05311,-0.62823 7.61289,0 1.68775,0.41421 1.23339,1.88914 0,1.5435 -2.53258,-0.70972 -5.09648,-0.51995 -7.61289,0 -1.77916,0.36762 -1.63949,-1.14893 0,-1.5435 z"
     id="rect6257"
     sodipodi:nodetypes="cssss"
     transform="matrix(8.4674346,0,0,9.4111722,-6754.0358,-1085.2215)" /></svg>